<?xml version="1.0" standalone="no"?>
<!DOCTYPE svg PUBLIC "-//W3C//DTD SVG 20010904//EN"
 "http://www.w3.org/TR/2001/REC-SVG-20010904/DTD/svg10.dtd">
<svg version="1.0" xmlns="http://www.w3.org/2000/svg"
 width="60.000000pt" height="60.000000pt" viewBox="0 0 60.000000 60.000000"
 preserveAspectRatio="xMidYMid meet">

<g transform="translate(0.000000,60.000000) scale(0.100000,-0.100000)"
fill="#000000" stroke="none">
<path d="M0 300 l0 -300 300 0 300 0 0 300 0 300 -300 0 -300 0 0 -300z m407
174 c94 -54 125 -182 69 -278 -78 -134 -274 -134 -352 0 -70 119 -4 272 130
305 45 11 105 0 153 -27z"/>
<path d="M263 360 c-30 -12 -29 -45 2 -66 27 -18 31 -40 13 -79 -23 -52 -103
-41 -114 15 -7 30 -24 42 -24 15 0 -72 86 -107 142 -58 15 14 19 14 33 0 50
-51 145 -13 145 58 0 27 -17 15 -24 -15 -9 -48 -71 -65 -106 -30 -28 28 -26
74 5 94 62 40 1 95 -72 66z"/>
</g>
</svg>
